<svg xmlns="http://www.w3.org/2000/svg" viewBox="0 0 24 26">
  <path d="M24 13.45349c0-4.15698-1.538462-7.60853-4.435897-10.05233C16.923077 1.2093 13.230769 0 9.179487 0v3.35078c3.25641 0 6.153846.93217 8.153846 2.59496 2.128205 1.76356 3.23077 4.35852 3.23077 7.50775 0 5.06395-4.23077 9.19573-9.410257 9.19573-4.282051 0-7.74359-3.40116-7.74359-7.55813 0-1.6376.666667-3.17442 1.846154-4.30814 1.179487-1.13373 2.769231-1.76357 4.48718-1.76357 1.461538 0 2.743589.4031 3.615384 1.15891.871795.75582 1.333334 1.81396 1.333334 3.09884 0 2.19186-1.615385 3.72868-3.923077 3.72868v3.35078c4.179487 0 7.358974-3.04845 7.358974-7.07946 0-2.24225-.897436-4.23256-2.487179-5.61822-1.512821-1.28488-3.589744-1.99031-5.871795-1.99031-2.615385 0-5.051282.95737-6.897436 2.72093C1.025641 10.1531 0 12.54651 0 15.09109 0 21.1124 5.025641 26 11.179487 26 18.230769 25.97481 24 20.35659 24 13.45349z" fill="#279B37" fill-rule="nonzero"/>
</svg>
